<?xml version="1.0" encoding="UTF-8" standalone="no"?>
<!-- Created with Inkscape (http://www.inkscape.org/) -->

<svg
   width="512"
   height="512"
   viewBox="0 0 512 512"
   version="1.1"
   id="svg1"
   xml:space="preserve"
   sodipodi:docname="prompt_harder_expression.svg"
   inkscape:version="1.3 (0e150ed, 2023-07-21)"
   xmlns:inkscape="http://www.inkscape.org/namespaces/inkscape"
   xmlns:sodipodi="http://sodipodi.sourceforge.net/DTD/sodipodi-0.dtd"
   xmlns="http://www.w3.org/2000/svg"
   xmlns:svg="http://www.w3.org/2000/svg"><sodipodi:namedview
     id="namedview1"
     pagecolor="#ffffff"
     bordercolor="#000000"
     borderopacity="0.25"
     inkscape:showpageshadow="2"
     inkscape:pageopacity="0.0"
     inkscape:pagecheckerboard="0"
     inkscape:deskcolor="#d1d1d1"
     inkscape:document-units="px"
     inkscape:zoom="0.3830676"
     inkscape:cx="258.44002"
     inkscape:cy="-120.08324"
     inkscape:window-width="952"
     inkscape:window-height="1004"
     inkscape:window-x="960"
     inkscape:window-y="0"
     inkscape:window-maximized="0"
     inkscape:current-layer="left-half" /><defs
     id="defs1"><rect
       x="86.995866"
       y="348.40575"
       width="260.719"
       height="119.45555"
       id="rect8" /><inkscape:path-effect
       effect="mirror_symmetry"
       start_point="62.89028,-157.02785"
       end_point="62.89028,354.97215"
       center_point="62.89028,98.972146"
       id="path-effect8"
       is_visible="true"
       lpeversion="1.2"
       lpesatellites=""
       mode="vertical"
       discard_orig_path="false"
       fuse_paths="false"
       oposite_fuse="false"
       split_items="false"
       split_open="false"
       link_styles="false" /><inkscape:path-effect
       effect="mirror_symmetry"
       start_point="62.582458,-124.14395"
       end_point="62.582458,387.85605"
       center_point="62.582458,131.85605"
       id="path-effect7"
       is_visible="true"
       lpeversion="1.2"
       lpesatellites=""
       mode="vertical"
       discard_orig_path="false"
       fuse_paths="false"
       oposite_fuse="false"
       split_items="false"
       split_open="false"
       link_styles="false" /><inkscape:path-effect
       effect="mirror_symmetry"
       start_point="62.89028,-175.99441"
       end_point="62.89028,394.83009"
       center_point="62.89028,109.41784"
       id="path-effect6"
       is_visible="true"
       lpeversion="1.2"
       lpesatellites=""
       mode="vertical"
       discard_orig_path="false"
       fuse_paths="false"
       oposite_fuse="false"
       split_items="false"
       split_open="false"
       link_styles="false" /><inkscape:path-effect
       effect="mirror_symmetry"
       start_point="76.364766,-197.53454"
       end_point="76.364766,352.36289"
       center_point="76.364766,77.414173"
       id="path-effect5"
       is_visible="true"
       lpeversion="1.2"
       lpesatellites=""
       mode="vertical"
       discard_orig_path="false"
       fuse_paths="false"
       oposite_fuse="false"
       split_items="false"
       split_open="false"
       link_styles="false" /><inkscape:path-effect
       effect="mirror_symmetry"
       start_point="-12.612567,-3.3622623"
       end_point="-12.612567,60.889046"
       center_point="-12.612567,28.763392"
       id="path-effect4"
       is_visible="true"
       lpeversion="1.2"
       lpesatellites=""
       mode="free"
       discard_orig_path="false"
       fuse_paths="false"
       oposite_fuse="false"
       split_items="false"
       split_open="false"
       link_styles="false" /><inkscape:path-effect
       effect="mirror_symmetry"
       start_point="-12.612567,-3.3622627"
       end_point="-12.612567,60.889046"
       center_point="-12.612567,28.763392"
       id="path-effect3"
       is_visible="true"
       lpeversion="1.2"
       lpesatellites=""
       mode="free"
       discard_orig_path="false"
       fuse_paths="false"
       oposite_fuse="false"
       split_items="false"
       split_open="false"
       link_styles="false" /></defs><g
     inkscape:label="Layer 1"
     inkscape:groupmode="layer"
     id="layer1"><g
       id="left-half"
       transform="translate(193.10972,153.55666)"><!-- Left Eye (round with heart cutout) --><path
         id="circle1"
         style="stroke-width:2.31108"
         d="m -56.103861,-16.039082 c -31.909604,-1.42e-4 -57.777489,25.8677398 -57.777339,57.777344 0,69.261488 25.867735,57.777486 57.777339,57.777344 C -24.194255,99.515751 1.6736284,73.647868 1.6734831,41.738262 1.6736284,9.8286558 -24.194255,-16.039227 -56.103861,-16.039082 Z M -69.945658,3.4472463 c 6.747456,-0.2447155 13.557629,3.8626448 15.289063,15.1601567 l 0.002,35.646484 V 18.607403 c 3.693726,-24.1013581 30.501953,-15.4804858 30.501953,-1.6875 0,10.176023 -1.549586,12.077972 -11.136719,20.798828 -5.554134,5.052272 -18.607613,16.524215 -19.365234,16.535156 -0.238496,-0.0034 -3.943496,-3.178578 -6.983876,-5.818893 l -9.722906,-8.318746 c 0,0 -1.897905,-1.703916 -2.660405,-2.397517 -9.587132,-8.720856 -11.136719,-10.622805 -11.136719,-20.798828 0,-7.3275239 7.565775,-13.1953126 15.21289,-13.4726567 z M 181.88442,-16.039082 c 31.9096,-1.42e-4 57.77749,25.8677398 57.77734,57.777344 0,69.261488 -25.86774,57.777486 -57.77734,57.777344 -31.90961,1.45e-4 -57.77749,-25.867738 -57.77734,-57.777344 -1.5e-4,-31.9096062 25.86773,-57.777489 57.77734,-57.777344 z m 13.8418,19.4863283 C 188.97876,3.2025308 182.16859,7.3098911 180.43715,18.607403 l -0.002,35.646484 V 18.607403 c -3.69372,-24.1013581 -30.50195,-15.4804858 -30.50195,-1.6875 0,10.176023 1.54959,12.077972 11.13672,20.798828 5.55413,5.052272 18.60761,16.524215 19.36523,16.535156 0.2385,-0.0034 3.9435,-3.178578 6.98388,-5.818893 l 9.72291,-8.318746 c 0,0 1.8979,-1.703916 2.6604,-2.397517 9.58713,-8.720856 11.13672,-10.622805 11.13672,-20.798828 0,-7.3275239 -7.56577,-13.1953126 -15.21289,-13.4726567 z"
         transform="matrix(0.89694819,0,0,0.89694819,6.4809574,4.3012036)"
         inkscape:original-d="m -56.103861,-16.039082 c -31.909604,-1.42e-4 -57.777489,25.8677398 -57.777339,57.777344 0,69.261488 25.867735,57.777486 57.777339,57.777344 C -24.194255,99.515751 1.6736284,73.647868 1.6734831,41.738262 1.6736284,9.8286558 -24.194255,-16.039227 -56.103861,-16.039082 Z M -69.945658,3.4472463 c 6.747456,-0.2447155 13.557629,3.8626448 15.289063,15.1601567 l 0.002,35.646484 V 18.607403 c 3.693726,-24.1013581 30.501953,-15.4804858 30.501953,-1.6875 0,10.176023 -1.549586,12.077972 -11.136719,20.798828 -5.554134,5.052272 -18.607613,16.524215 -19.365234,16.535156 -0.238496,-0.0034 -3.943496,-3.178578 -6.983876,-5.818893 l -9.722906,-8.318746 c 0,0 -1.897905,-1.703916 -2.660405,-2.397517 -9.587132,-8.720856 -11.136719,-10.622805 -11.136719,-20.798828 0,-7.3275239 7.565775,-13.1953126 15.21289,-13.4726567 z"
         inkscape:path-effect="#path-effect6"
         sodipodi:nodetypes="cccccccccsscccsscc" /><!-- Left Eyebrow --><!-- Left half of Mouth (W-shaped) --><!-- Left Blush (elongated rounded rectangle) --><path
         id="rect2"
         d="m -114.18198,113.17742 h 53.724656 c 6.377884,0 11.512427,5.34659 11.512427,11.98787 0,6.64128 -5.134543,11.98787 -11.512427,11.98787 h -36.085863 l -13.664343,11.96979 -2.96651,-11.96979 h -1.00794 c -6.37789,0 -11.51243,-5.34659 -11.51243,-11.98787 0,-6.64128 5.13454,-11.98787 11.51243,-11.98787 z m 354.14452,0 h -53.72466 c -6.37788,0 -11.51242,5.34659 -11.51242,11.98787 0,6.64128 5.13454,11.98787 11.51242,11.98787 h 53.72466 c 6.37789,0 11.51243,-5.34659 11.51243,-11.98787 0,-6.64128 -5.13454,-11.98787 -11.51243,-11.98787 z"
         style="fill:#ff00ff;fill-opacity:1;stroke-width:1.56636"
         sodipodi:nodetypes="sssscccssssssssss" /><path
         style="fill:#030000;fill-opacity:0.981374;stroke-width:16;stroke-dasharray:none"
         d="m 11.629655,29.358871 c 0,0 -101.140278,-38.1442368 -104.301908,-43.564237 -3.161616,-5.42 2.765234,-21.976497 8.547768,-19.776944 5.78254,2.199553 94.252199,43.7922882 97.177186,51.512977 2.924987,7.720689 -1.423046,11.828204 -1.423046,11.828204 z m 101.905605,0 c 0,0 101.14028,-38.1442368 104.30191,-43.564237 3.16162,-5.42 -2.76523,-21.976497 -8.54777,-19.776944 -5.78254,2.199553 -94.2522,43.7922882 -97.17718,51.512977 -2.92499,7.720689 1.42304,11.828204 1.42304,11.828204 z"
         id="path3"
         sodipodi:nodetypes="czzzc"
         inkscape:original-d="m 11.629655,29.358871 c 0,0 -101.140278,-38.1442368 -104.301908,-43.564237 -3.161616,-5.42 2.765234,-21.976497 8.547768,-19.776944 5.78254,2.199553 94.252199,43.7922882 97.177186,51.512977 2.924987,7.720689 -1.423046,11.828204 -1.423046,11.828204 z"
         inkscape:path-effect="#path-effect7"
         transform="translate(0.30782173,-29.41271)" /><path
         style="fill:#0b0003;fill-opacity:1;stroke-width:3.717;stroke-dasharray:none"
         d="M 15.843888,80.151808 C 15.44503,83.47171 41.444012,119.07478 46.48939,119.10894 51.534768,119.14314 76.364766,94.305981 76.364766,94.305981 V 71.91379 c 0,0 -2.512417,-0.220933 -3.828684,1.05561 C 66.648507,78.679288 52.124314,95.207483 50.73951,94.07119 49.045109,92.680859 30.771907,69.82969 28.228081,69.60646 25.684255,69.38323 16.242746,76.831906 15.843888,80.151808 Z m 121.041752,0 c 0.39886,3.319902 -25.60012,38.922972 -30.6455,38.957132 -5.04538,0.0342 -29.875374,-24.802959 -29.875374,-24.802959 V 71.91379 c 0,0 2.512417,-0.220933 3.828684,1.05561 5.887575,5.709888 20.41177,22.238083 21.79657,21.10179 1.6944,-1.390331 19.96761,-24.2415 22.51143,-24.46473 2.54383,-0.22323 11.98534,7.225446 12.38419,10.545348 z"
         id="path4"
         inkscape:path-effect="#path-effect5"
         inkscape:original-d="M 15.843888,80.151808 C 15.44503,83.47171 41.444012,119.07478 46.48939,119.10894 51.534768,119.14314 76.364766,94.305981 76.364766,94.305981 V 71.91379 c 0,0 -2.512417,-0.220933 -3.828684,1.05561 C 66.648507,78.679288 52.124314,95.207483 50.73951,94.07119 49.045109,92.680859 30.771907,69.82969 28.228081,69.60646 25.684255,69.38323 16.242746,76.831906 15.843888,80.151808 Z"
         sodipodi:nodetypes="zzccsszz"
         transform="matrix(0.93108272,0,0,0.93108272,-8.2116341,30.364341)" /></g></g></svg>
